<svg width="266" height="24" viewBox="0 0 266 24" xmlns="http://www.w3.org/2000/svg" xmlns:xlink="http://www.w3.org/1999/xlink"><defs><path d="M9.0686918 24c2.6075408 0 4.7314914-.6980591 6.369104-2.092827C17.145474 20.4448945 18 18.483038 18 16.0229536c0-2.0982279-.6924134-3.8156962-2.0772401-5.1551055C14.5956343 9.5864979 12.87147 8.8438819 10.7475195 8.64c0 .0243038.1442527-.1134177.4327583-.4077637.3695619-.3510549.7102733-.7264135 1.022134-1.1233755l5.34697-6.7848102V0H2.1294458v3.2499578h7.5451077c.3585712 0 .7913296-.0243038 1.2982751-.070211l.6580674-.0675105-.4327583.4266667c-.335216.326751-.6058617.6237974-.813311.883038l-5.555793 7.0427004.1731034.3227004c.3805526-.1458228.8421615-.2727426 1.3848267-.3740085.6800489-.1255696 1.3724622-.1876793 2.0772401-.1876793 3.8068997 0 5.7110365 1.5540928 5.7110365 4.6609283 0 3.1878481-1.759884 4.7797468-5.2782781 4.7797468-1.3628454 0-2.5512136-.345654-3.5664784-1.036962-.8765074-.5900422-1.592276-1.3961182-2.145932-2.4155274L0 18.8475949c.7267593 1.5284389 1.8862769 2.7611815 3.4785529 3.6887764C5.1408945 23.5139241 7.0038162 24 9.0686918 24" id="a"/><path d="M12.1069831 0c3.3789416 0 6.2299236 1.1252083 8.5542826 3.375625 2.3457447 2.2837462 3.5192853 5.162093 3.5192853 8.6323741 0 3.4609488-1.1735406 6.3379625-3.5192853 8.6323742C18.3369067 22.8801244 15.4859247 24 12.1069831 24c-3.401664 0-6.2633388-1.1198756-8.5876978-3.3596267C1.1735406 18.3459616 0 15.4689479 0 12.0079991c0-3.470281 1.1735406-6.348628 3.5192853-8.6323742C5.8436443 1.1252083 8.7053191 0 12.1069831 0zm22.1448991.0333296c3.0421167 0 5.2475177 1.2265304 6.6175395 3.678258l-2.8630114 1.763804c-.8647845-1.5224975-2.1158484-2.2837462-3.7545281-2.2837462-2.0209493 0-3.0314239.906566-3.0314239 2.721031 0 1.3985113 1.128096 2.591712 3.384288 3.5769359l1.515712.6879235c2.1332242.9412288 3.659629 1.914454 4.580551 2.922342 1.0318603 1.1758693 1.5491271 2.6543717 1.5491271 4.434174 0 2.0037773-.713748 3.6009332-2.1385707 4.7861348C38.7081288 23.4400622 36.8836607 24 34.6394981 24c-2.0998091 0-3.9069013-.4799467-5.4226132-1.4438396-1.3138844-.8172425-2.3230224-1.9491167-3.0314239-3.3929563l2.9980087-1.662482c.6509275 1.0638818 1.3299236 1.8357961 2.0369886 2.3170759.920922.6385957 2.0383251.957227 3.3508729.957227 2.7052918 0 4.0579378-1.0692145 4.0579378-3.2076436 0-.9398956-.3314785-1.7291412-.9930988-2.3677369-.5506819-.503944-1.5264048-1.0625486-2.9298418-1.6784802l-1.5491271-.6892567c-1.8632297-.8292412-3.2105292-1.713143-4.0418985-2.6543718-.96503-1.0958782-1.447545-2.4970558-1.447545-4.1982002 0-1.734474.6121658-3.1583157 1.8351609-4.2661926C30.7379433.5932674 32.3204855.0333296 34.2518822.0333296zM85.9264321 0c3.3789416 0 6.2299236 1.1252083 8.5542826 3.375625C96.8264594 5.6593711 98 8.537718 98 12.007999c0 3.4609488-1.1735406 6.3379625-3.5192853 8.6323742C92.1563557 22.8801244 89.3053737 24 85.9264321 24c-3.4003274 0-6.2633388-1.1198756-8.5876978-3.3596267-2.3457447-2.2944117-3.5179487-5.1714254-3.5179487-8.6323742 0-3.470281 1.172204-6.348628 3.5179487-8.6323742C79.6630933 1.1252083 82.5261047 0 85.9264321 0zM46.7625205.0666593L57.960611 13.1345406 69.0731588.0666593h.37024V23.697367h-3.4858702V11.5547161c0-.5252749.0227224-1.2371958.068167-2.1330963l.0668303-1.209199-.7231042 1.0412177c-.5279596.7505833-.9824059 1.3331852-1.3646754 1.7464726l-5.9104746 7.0885457h-.4036552l-5.8930988-7.0885457c-.37024-.4132874-.808647-.9852239-1.3138843-1.713143l-.757856-1.0745473.068167 1.209199c.044108.8959005.0668303 1.6078214.0668303 2.1330963V23.697367h-3.4858702V.0666593h.387616zM12.1069831 3.2583046c-2.436634 0-4.4509002.8399067-6.045472 2.51972C4.5016913 7.4231753 3.721113 9.5002779 3.721113 12.0079992c0 2.4970559.7805783 4.5701589 2.3403983 6.2139762 1.5945717 1.6798134 3.608838 2.5210533 6.0454719 2.5210533 2.4352973 0 4.4335243-.8412399 5.9946808-2.5210533 1.55982-1.6438173 2.3403983-3.7169203 2.3403983-6.2139762 0-2.5077213-.7805783-4.5848239-2.3403983-6.2299744-1.5611565-1.6798134-3.5593835-2.51972-5.9946808-2.51972zm73.819449 0c-2.4352973 0-4.4509002.8399067-6.0441353 2.51972-1.5611566 1.6451506-2.3403983 3.7222532-2.3403983 6.2299745 0 2.4970559.7792417 4.5701589 2.3403983 6.2139762 1.5932351 1.6798134 3.608838 2.5210533 6.0441353 2.5210533 2.4366339 0 4.4348609-.8412399 5.9946808-2.5210533 1.55982-1.6438173 2.3403983-3.7169203 2.3403983-6.2139762 0-2.5077213-.7805783-4.5848239-2.3403983-6.2299744-1.5598199-1.6798134-3.5580469-2.51972-5.9946808-2.51972z" id="b"/></defs><g fill="#141414" fill-rule="evenodd"><use xlink:href="#a" transform="translate(248)"/><use xlink:href="#b"/><path d="M110 23.700267h3.6453333v-8.2973333h3.896c2.5426667 0 4.5693334-.6266667 6.0813334-1.8813334C125.224 12.188267 126.024 10.296267 126.024 7.844267c0-2.4746667-.8-4.368-2.4013333-5.6773333C122.1106667.924267 120.084.3016003 117.5413333.3016003H110V23.700267zm3.6453333-11.4893333v-8.7h3.7453334c3.2813333 0 4.9213333 1.444 4.9213333 4.3333333 0 2.912-1.64 4.3666667-4.9213333 4.3666667h-3.7453334zm27.3573334 11.792c3.3706666 0 6.2146666-1.12 8.532-3.36 2.3413333-2.2946667 3.5106666-5.1733334 3.5106666-8.6333334 0-3.4706666-1.1693333-6.3493333-3.5106666-8.6333333-2.3173334-2.2506667-5.1613334-3.376-8.532-3.376-3.3933334 0-6.2493334 1.1253333-8.5666667 3.376-2.34 2.284-3.5106667 5.1626667-3.5106667 8.6333333 0 3.46 1.1706667 6.3386667 3.5106667 8.6333334 2.3173333 2.24 5.1733333 3.36 8.5666667 3.36zm0-3.2586667c-2.4306667 0-4.44-.84-6.0306667-2.52-1.556-1.6453333-2.3346667-3.7173333-2.3346667-6.2146667 0-2.508.7786667-4.5853333 2.3346667-6.232 1.5906667-1.6786666 3.6-2.5186666 6.0306667-2.5186666 2.4293333 0 4.4226666.84 5.98 2.5186666 1.556 1.6466667 2.3346666 3.724 2.3346666 6.232 0 2.4973334-.7786666 4.5693334-2.3346666 6.2146667-1.5573334 1.68-3.5506667 2.52-5.98 2.52zM168.212 24.0029337c4.2893333 0 7.52-1.6626667 9.692-4.9893334l-2.788-1.948c-.796 1.164-1.736 2.0546667-2.8226667 2.6706667-1.164.672-2.5253333 1.008-4.0813333 1.008-2.408 0-4.3946667-.84-5.9626667-2.52-1.556-1.6453333-2.3346666-3.7173333-2.3346666-6.2146667 0-2.508.7786666-4.5853333 2.3346666-6.232C163.8173333 4.132267 165.804 3.308267 168.212 3.308267c2.9333333 0 5.1226667 1.12 6.568 3.36l2.788-1.9986667c-2.072-3.0906666-5.1906667-4.636-9.356-4.636-3.3706667 0-6.204 1.1253334-8.4986667 3.376-2.3413333 2.284-3.5106666 5.1506667-3.5106666 8.6 0 3.46 1.1693333 6.3386667 3.5106666 8.6333334 2.2946667 2.24 5.128 3.36 8.4986667 3.36zm13.3426667-.3026667H185.2v-7.1213333l2.6533333-3.192 7.1893334 10.3133333h4.3666666l-9.12-13.0346667L198.52.3016003h-4.0986667l-7.6426666 9.508c-.292.3586667-.6106667.8506667-.9573334 1.4773334l-.8906666 1.6466666.168-1.68c.068-.716.1013333-1.316.1013333-1.7973333V.3016003h-3.6453333V23.700267zm21.12 0h15.3360003v-3.192H206.32v-6.9866667h9.944V10.380267h-9.944V3.5109337h11.22V.3016003h-14.8653333V23.700267zm25.0346663 0h3.612V3.5109337h6.937334V.3016003H220.756v3.2093334h6.953333V23.700267z"/></g></svg>